<svg width="522" height="574" viewBox="0 0 522 574" fill="none" xmlns="http://www.w3.org/2000/svg">
<rect x="336.578" y="121.2" width="70.8" height="66" rx="9.6" fill="black"/>
<path d="M96.5781 103.2C96.5781 87.2942 109.472 74.4 125.378 74.4H404.378C420.284 74.4 433.178 87.2942 433.178 103.2V118.2C433.178 134.106 420.284 147 404.378 147H244.778C228.872 147 215.978 159.894 215.978 175.8V525.6C215.978 541.506 203.084 554.4 187.178 554.4H125.378C109.472 554.4 96.5781 541.506 96.5781 525.6V103.2Z" fill="black"/>
<rect x="336.578" y="141.6" width="70.8" height="16.8" rx="4.8" fill="#81CFE2"/>
<path d="M94.4811 109.889C94.4811 107.714 95.9441 105.81 98.0463 105.251L267.138 60.2395C269.7 59.5574 272.33 61.0819 273.012 63.6442L274.866 70.6169C275.546 73.1727 274.03 75.7968 271.477 76.4852L100.53 122.569C97.4801 123.391 94.481 121.094 94.481 117.935L94.4811 109.889Z" fill="#81CFE2"/>
<path d="M120.761 71.7122C121.837 71.1052 122.963 70.5916 124.127 70.1771L145.778 62.4667L188.978 50.4L254.378 34.8L310.483 21.7088C315.965 20.4298 320.089 26.6478 316.778 31.2L313.373 36.1181C312.052 38.0269 310.431 39.7102 308.574 41.1031L297.382 49.4969C295.525 50.8899 293.455 51.9743 291.253 52.7084L269.378 60L95.557 107.951C95.4398 107.983 95.3329 108.045 95.2469 108.131C94.7527 108.625 93.9184 108.174 94.0616 107.49L98.3359 87.0684C98.7441 85.1182 99.9732 83.4387 101.709 82.4598L120.761 71.7122Z" fill="black"/>
</svg>
